<svg width="34" height="32" viewBox="0 0 34 32" fill="none" xmlns="http://www.w3.org/2000/svg"><path d="M12.8731 20.5407L23.9546 12.3506C24.4979 11.9491 25.2744 12.1057 25.5333 12.7294C26.8957 16.0185 26.287 19.9712 23.5763 22.6851C20.8657 25.3989 17.0941 25.9941 13.6468 24.6386L9.88086 26.3843C15.2823 30.0806 21.8413 29.1665 25.94 25.0601C29.1911 21.8051 30.198 17.3683 29.2565 13.3673L29.265 13.3758C27.8997 7.49809 29.6007 5.14871 33.085 0.344576C33.1674 0.230667 33.2499 0.116757 33.3324 0L28.7473 4.59055V4.57631L12.8703 20.5436" fill="white"></path><path d="M10.5867 22.5312C6.70979 18.8234 7.37821 13.0852 10.6862 9.77618C13.1323 7.3271 17.14 6.32755 20.6385 7.79698L24.3959 6.05986C23.719 5.57005 22.8514 5.04322 21.8559 4.67301C17.3562 2.81914 11.969 3.7418 8.31115 7.40114C4.79271 10.9238 3.68626 16.3402 5.58628 20.9621C7.0056 24.4164 4.67893 26.8597 2.3352 29.3259C1.50465 30.2001 0.67126 31.0744 0 31.9999L10.5838 22.534" fill="white"></path></svg>