<svg width="33" height="24" viewBox="0 0 33 24" fill="none" xmlns="http://www.w3.org/2000/svg"><path d="M21.2114 0C20.902 0.549329 20.6241 1.1176 20.3716 1.6985C17.9722 1.3386 15.5286 1.3386 13.123 1.6985C12.8767 1.1176 12.5926 0.549329 12.2832 0C10.029 0.385162 7.83169 1.06077 5.74802 2.01421C1.61859 8.1326 0.500983 14.0931 1.05663 19.9716C3.47494 21.7585 6.1837 23.1223 9.06926 23.9937C9.71961 23.1223 10.2942 22.1942 10.7867 21.2281C9.85221 20.8808 8.94929 20.4451 8.08425 19.94C8.31156 19.7758 8.53256 19.6054 8.74724 19.4412C13.8175 21.8279 19.6896 21.8279 24.7662 19.4412C24.9809 19.618 25.2019 19.7885 25.4292 19.94C24.5642 20.4515 23.6612 20.8808 22.7204 21.2344C23.2129 22.2005 23.7875 23.1287 24.4379 24C27.3234 23.1287 30.0322 21.7711 32.4505 19.9842C33.1072 13.165 31.3266 7.25493 27.7465 2.02052C25.6691 1.06709 23.4718 0.391476 21.2177 0.0126283L21.2114 0ZM11.4939 16.3536C9.93429 16.3536 8.6399 14.9392 8.6399 13.1902C8.6399 11.4412 9.88378 10.0205 11.4876 10.0205C13.0914 10.0205 14.3668 11.4475 14.3416 13.1902C14.3163 14.9329 13.0851 16.3536 11.4939 16.3536ZM22.0133 16.3536C20.4473 16.3536 19.1656 14.9392 19.1656 13.1902C19.1656 11.4412 20.4095 10.0205 22.0133 10.0205C23.617 10.0205 24.8862 11.4475 24.8609 13.1902C24.8357 14.9329 23.6044 16.3536 22.0133 16.3536Z" fill="white"></path></svg>