<svg width="35" height="35" viewBox="0 0 35 35" fill="none" xmlns="http://www.w3.org/2000/svg">
<path d="M14.9424 20.7268H15.8272L15.4028 31.4168C14.7058 31.7575 14.1088 32.2649 13.6676 32.8914C13.2264 33.518 12.9554 34.2433 12.8799 34.9996H9.50208C12.9414 30.9906 14.8621 25.9515 14.9424 20.7268ZM21.6083 28.6031C20.6102 26.089 20.0778 23.4222 20.036 20.7268H19.1512L19.5757 31.4168C20.2727 31.7575 20.8697 32.2649 21.3109 32.8914C21.7521 33.518 22.0231 34.2433 22.0986 34.9996H25.4704C23.8321 33.088 22.5274 30.927 21.6083 28.6031ZM18.6849 31.6848L18.2545 20.7268H16.724L16.2935 31.6848V31.6965L16.162 34.9996H18.8164L18.6849 31.6965V31.6848ZM20.7235 19.853L21.1002 18.3966H13.8783L14.2549 19.853H20.7235ZM15.5821 17.5227H19.3963L18.8643 10.2407H16.1142L15.5821 17.5227ZM19.4322 7.91048H15.5462V9.36688H19.4322V7.91048ZM18.2365 5.14331C18.2365 4.95018 18.1578 4.76496 18.0176 4.6284C17.8775 4.49183 17.6874 4.41511 17.4892 4.41511C17.291 4.41511 17.101 4.49183 16.9608 4.6284C16.8207 4.76496 16.7419 4.95018 16.7419 5.14331V7.03664H18.2365V5.14331ZM17.9376 3.30591V0.48282C17.9376 0.366941 17.8904 0.255808 17.8063 0.17387C17.7222 0.0919311 17.6081 0.0458984 17.4892 0.0458984C17.3703 0.0458984 17.2563 0.0919311 17.1722 0.17387C17.0881 0.255808 17.0408 0.366941 17.0408 0.48282V3.30591C17.3349 3.2314 17.6436 3.2314 17.9376 3.30591Z" fill="white"/>
</svg>
