<svg id="Layer_1" data-name="Layer 1" xmlns="http://www.w3.org/2000/svg" viewBox="0 0 841.89 595.28"><defs><style>.cls-1{fill:#fff;}.cls-2{fill:#7b58a5;}</style></defs><path class="cls-1" d="M498.2,215.94c-10.91-16.11-36.89-23.35-52.94-37.07,11.78,19.36,23.18,39,33.73,59,10.24,19.44,1.68,44.11-17.71,54.6-18.93,10.25-40.5,3.38-52.15-16.74-19.39-33.54-39.23-66.84-57.69-100.89-4.87-9-8.88-21.06-7-30.46,1.76-8.78,5.92-17.09,10.46-25.76A10.14,10.14,0,0,0,346,103.8L259,103a10.14,10.14,0,0,0-8.87,15.22c53.68,93,107.28,185.82,161.67,280a10.15,10.15,0,0,0,17.58,0c24.84-43,49-84.73,73-126.35C502.44,271.8,511.29,235.26,498.2,215.94Z"/><path class="cls-2" d="M506.85,264.23s8-33.24-4.3-51.42c-12.48-18.44-46-24.5-58-44.26-10.68-17.51-8.88-34.11-2.52-44,11.1-17.29,26.71-23.79,46.62-23.57,30.87.34,61.75.19,93.88.13a10.6,10.6,0,0,1,9.2,15.9c-7.43,12.89-14.49,25.08-22.08,38.23a5.74,5.74,0,0,1-3,2.33c-7.18,2.79-14.68-3.31-14-11,.8-9.32-1.63-17.23-8.45-24.28-10.37-10.7-26.89-12.3-38.24-3.79-11,8.26-13.81,22-6.59,35.4,6,11.26,12.76,22.16,19,33.29,10.68,19,10.87,38.18.05,57"/><circle class="cls-1" cx="523.41" cy="140.8" r="18.05"/><path class="cls-1" d="M254.28,487V440a7.63,7.63,0,0,1,1.76-5.48,6,6,0,0,1,4.55-1.83,6.23,6.23,0,0,1,4.65,1.81c1.19,1.2,1.78,3,1.78,5.5V487q0,3.69-1.78,5.52a6.21,6.21,0,0,1-4.65,1.83,6,6,0,0,1-4.53-1.85A7.63,7.63,0,0,1,254.28,487Z"/><path class="cls-1" d="M291.08,453.17v1.41a20.5,20.5,0,0,1,6.76-6,18,18,0,0,1,8.43-1.91,16.76,16.76,0,0,1,8.28,2,12.76,12.76,0,0,1,5.44,5.7A13.42,13.42,0,0,1,321.5,459a49.72,49.72,0,0,1,.34,6.35v21.79a7.76,7.76,0,0,1-1.61,5.32,5.79,5.79,0,0,1-8.43,0,7.71,7.71,0,0,1-1.63-5.28V467.66q0-5.79-1.61-8.85t-6.41-3.07a9.43,9.43,0,0,0-5.7,1.87,10.68,10.68,0,0,0-3.78,5.12q-.85,2.63-.86,9.78v14.67a7.59,7.59,0,0,1-1.65,5.34,5.54,5.54,0,0,1-4.27,1.78,5.31,5.31,0,0,1-4.16-1.84,7.76,7.76,0,0,1-1.63-5.28V453.34a7.39,7.39,0,0,1,1.46-5,5,5,0,0,1,4-1.65,5.38,5.38,0,0,1,2.79.73,5.19,5.19,0,0,1,2,2.19A7.71,7.71,0,0,1,291.08,453.17Z"/><path class="cls-1" d="M332.56,447.72h2.79V444.2a22.5,22.5,0,0,1,1.39-8.73,8.9,8.9,0,0,1,4.72-4.72,23,23,0,0,1,9.12-1.48q10.25,0,10.25,5a4,4,0,0,1-1.07,2.79,3.36,3.36,0,0,1-2.53,1.16,18.39,18.39,0,0,1-2.36-.26,19.46,19.46,0,0,0-2.83-.26c-2.12,0-3.48.63-4.08,1.87a12.6,12.6,0,0,0-.9,5.34v2.79h2.87c4.46,0,6.7,1.34,6.7,4,0,1.92-.6,3.13-1.78,3.65a12.79,12.79,0,0,1-4.92.77h-2.87v31a7.65,7.65,0,0,1-1.65,5.3,5.52,5.52,0,0,1-4.27,1.82,5.36,5.36,0,0,1-4.14-1.82,7.65,7.65,0,0,1-1.65-5.3v-31h-3.22a6.11,6.11,0,0,1-4-1.18,3.82,3.82,0,0,1-1.41-3.07C326.69,449.12,328.64,447.72,332.56,447.72Z"/><path class="cls-1" d="M405.44,470.5a27.65,27.65,0,0,1-1.63,9.65,21.42,21.42,0,0,1-4.72,7.59,20.81,20.81,0,0,1-7.38,4.87,26.05,26.05,0,0,1-9.65,1.69,25.41,25.41,0,0,1-9.56-1.71,21.17,21.17,0,0,1-12.08-12.46,27.72,27.72,0,0,1-1.61-9.63,28.07,28.07,0,0,1,1.63-9.74,21.23,21.23,0,0,1,4.68-7.55,20.58,20.58,0,0,1,7.38-4.83,27.91,27.91,0,0,1,19.21,0,20.79,20.79,0,0,1,12.12,12.43A27.89,27.89,0,0,1,405.44,470.5Zm-11.75,0q0-7.17-3.16-11.16a10.23,10.23,0,0,0-8.47-4,10.56,10.56,0,0,0-6.05,1.78,11.29,11.29,0,0,0-4,5.26,21.45,21.45,0,0,0-1.41,8.11,21.21,21.21,0,0,0,1.39,8,11.45,11.45,0,0,0,4,5.25,10.33,10.33,0,0,0,6.11,1.82,10.19,10.19,0,0,0,8.47-4Q393.68,477.58,393.69,470.5Z"/><path class="cls-1" d="M415.3,447.72h1.29v-7q0-2.82.15-4.44a6.49,6.49,0,0,1,.84-2.76,5.2,5.2,0,0,1,2-2,5.61,5.61,0,0,1,2.87-.75,5.77,5.77,0,0,1,4,1.67,5,5,0,0,1,1.52,2.72,25.2,25.2,0,0,1,.32,4.57v8h4.29a5.49,5.49,0,0,1,3.8,1.18,3.88,3.88,0,0,1,1.3,3,3.39,3.39,0,0,1-1.86,3.31,12.28,12.28,0,0,1-5.34.94H428.3V477.7a37.13,37.13,0,0,0,.19,4.23,4.4,4.4,0,0,0,1,2.4,3.55,3.55,0,0,0,2.73.92,14.89,14.89,0,0,0,2.79-.36,13.93,13.93,0,0,1,2.74-.37,3.51,3.51,0,0,1,2.55,1.14,3.81,3.81,0,0,1,1.14,2.81q0,2.83-3.09,4.33t-8.88,1.5q-5.49,0-8.32-1.84a8.56,8.56,0,0,1-3.71-5.11,34.37,34.37,0,0,1-.88-8.7V456.17h-1.54a5.56,5.56,0,0,1-3.86-1.2,3.92,3.92,0,0,1-1.33-3.05,3.77,3.77,0,0,1,1.39-3A6.1,6.1,0,0,1,415.3,447.72Z"/><path class="cls-1" d="M478.44,473.37h-22.9a15.47,15.47,0,0,0,1.61,7,10.78,10.78,0,0,0,9.88,6.14,14,14,0,0,0,3.84-.5,12.28,12.28,0,0,0,3.37-1.54,25,25,0,0,0,3-2.25c.92-.8,2.1-1.89,3.56-3.26a3.82,3.82,0,0,1,2.58-.77,4.2,4.2,0,0,1,2.91,1,3.52,3.52,0,0,1,1.12,2.79,7.6,7.6,0,0,1-1.25,3.71,14.84,14.84,0,0,1-3.75,4.08,21.15,21.15,0,0,1-6.3,3.23,27.09,27.09,0,0,1-8.73,1.29q-11.28,0-17.55-6.43t-6.26-17.46a29.11,29.11,0,0,1,1.55-9.63,21.06,21.06,0,0,1,4.5-7.61,19.45,19.45,0,0,1,7.29-4.87,26.17,26.17,0,0,1,9.61-1.7,22.77,22.77,0,0,1,11.77,2.9,19,19,0,0,1,7.36,7.48,19.7,19.7,0,0,1,2.45,9.35q0,4.43-2.54,5.73A15.77,15.77,0,0,1,478.44,473.37Zm-22.9-6.65h21.23c-.28-4-1.37-7-3.24-9a9.72,9.72,0,0,0-7.4-3,9.36,9.36,0,0,0-7.18,3Q456.15,460.8,455.54,466.72Z"/><path class="cls-1" d="M540,479.8a10.13,10.13,0,0,1-1.3,4.68,16.27,16.27,0,0,1-4,4.74,20.56,20.56,0,0,1-6.76,3.62,28.51,28.51,0,0,1-9.18,1.38q-10.85,0-16.94-6.33t-6.09-17a27.94,27.94,0,0,1,2.79-12.74,19.94,19.94,0,0,1,8.06-8.55,24.91,24.91,0,0,1,12.61-3,25.24,25.24,0,0,1,8.34,1.33,22,22,0,0,1,6.44,3.43,16.54,16.54,0,0,1,4,4.49,8.82,8.82,0,0,1,1.39,4.44,4.69,4.69,0,0,1-1.56,3.56,5.39,5.39,0,0,1-3.8,1.46,3.77,3.77,0,0,1-2.42-.76,11.52,11.52,0,0,1-2.17-2.42,17.8,17.8,0,0,0-4.48-4.89,11,11,0,0,0-14.31,2.42q-3.17,4.06-3.17,11.09a21.12,21.12,0,0,0,.82,6.07,13.66,13.66,0,0,0,2.35,4.72,10.11,10.11,0,0,0,3.74,3,11.34,11.34,0,0,0,4.8,1,10.83,10.83,0,0,0,6-1.63,14.37,14.37,0,0,0,4.44-5,11.52,11.52,0,0,1,2.31-3.09A4.42,4.42,0,0,1,535,474.7a4.51,4.51,0,0,1,3.56,1.63A5.23,5.23,0,0,1,540,479.8Z"/><path class="cls-1" d="M559.43,436.39v17.38a24.82,24.82,0,0,1,4.35-4.08,15.7,15.7,0,0,1,4.7-2.25,19.66,19.66,0,0,1,5.53-.75,16.24,16.24,0,0,1,7.92,1.89,13.46,13.46,0,0,1,5.42,5.49,13.25,13.25,0,0,1,1.67,4.69,36.65,36.65,0,0,1,.43,6v22.43a7.71,7.71,0,0,1-1.61,5.32,5.43,5.43,0,0,1-4.26,1.8q-5.79,0-5.79-7.12V467.41q0-5.62-1.68-8.65c-1.11-2-3.23-3-6.34-3a9.53,9.53,0,0,0-5.65,1.78,10.75,10.75,0,0,0-3.75,4.87c-.63,1.74-.94,4.85-.94,9.31v15.48a7.89,7.89,0,0,1-1.57,5.3,5.43,5.43,0,0,1-4.35,1.82q-5.79,0-5.79-7.12V436.39a8.08,8.08,0,0,1,1.52-5.34,5.33,5.33,0,0,1,4.27-1.78,5.43,5.43,0,0,1,4.35,1.81A7.85,7.85,0,0,1,559.43,436.39Z"/><circle class="cls-1" cx="260.29" cy="417.23" r="9.34"/></svg>